<?xml version="1.0" standalone="no"?>
<!DOCTYPE svg PUBLIC "-//W3C//DTD SVG 20010904//EN"
 "http://www.w3.org/TR/2001/REC-SVG-20010904/DTD/svg10.dtd">
<svg version="1.0" xmlns="http://www.w3.org/2000/svg"
 width="421.000000pt" height="421.000000pt" viewBox="0 0 421.000000 421.000000"
 preserveAspectRatio="xMidYMid meet">
<metadata>
Created by potrace 1.14, written by Peter Selinger 2001-2017
</metadata>
<g transform="translate(0.000000,421.000000) scale(0.100000,-0.100000)"
fill="#000000" stroke="none">
<path d="M2145 3650 c-16 -4 -55 -5 -85 -3 -72 6 -231 -22 -298 -52 -29 -14
-73 -38 -97 -54 -24 -16 -58 -32 -76 -36 -108 -24 -221 -112 -269 -210 -22
-43 -25 -64 -25 -155 0 -92 -3 -109 -22 -135 -33 -47 -62 -145 -72 -243 -11
-105 3 -350 24 -433 15 -58 19 -220 6 -252 -5 -15 -11 -9 -30 30 -26 57 -49
86 -78 101 -18 10 -21 8 -27 -20 -8 -39 -8 -53 0 -45 10 10 63 -32 78 -61 7
-15 16 -55 20 -90 4 -35 15 -102 25 -150 11 -47 17 -92 14 -98 -8 -22 -35 -25
-62 -8 l-26 17 19 -21 c13 -15 31 -22 58 -22 62 0 72 -16 133 -213 30 -97 81
-203 138 -288 38 -57 183 -206 270 -277 125 -102 264 -158 371 -150 193 16
511 233 652 444 54 81 126 225 139 277 11 43 58 77 99 70 39 -6 71 8 87 40
l12 22 -25 -22 c-28 -26 -66 -30 -74 -9 -3 8 10 52 30 98 19 46 41 108 47 138
6 30 18 68 26 83 14 27 70 60 85 51 10 -6 9 55 -1 79 -6 16 -12 14 -52 -21
-24 -22 -51 -51 -58 -66 -8 -14 -19 -26 -24 -26 -9 0 -7 37 8 155 2 17 17 67
34 112 48 130 82 310 84 444 2 113 1 117 -31 179 -22 43 -32 77 -32 108 0 28
-8 57 -21 79 -17 27 -20 45 -16 80 9 84 -12 120 -166 282 -46 47 -186 138
-266 172 -111 47 -282 84 -466 103 -16 1 -43 -1 -60 -4z m-145 -655 c113 -20
204 -27 410 -35 255 -9 316 -16 405 -50 77 -29 135 -101 167 -205 24 -81 23
-153 -8 -330 -21 -120 -27 -201 -34 -405 -6 -226 -10 -262 -30 -320 -38 -112
-141 -294 -212 -375 -88 -100 -294 -293 -338 -315 -25 -12 -65 -37 -90 -55
-98 -70 -195 -84 -281 -40 -71 35 -167 106 -220 162 -48 51 -194 236 -248 316
-39 58 -105 196 -137 289 -58 170 -65 286 -29 489 10 55 15 152 15 280 0 174
3 207 24 291 31 121 55 169 121 234 97 97 221 114 485 69z"/>
<path d="M1571 2568 c-53 -32 -104 -99 -88 -114 4 -4 38 7 76 26 l69 33 124
-6 c67 -4 144 -10 171 -13 60 -8 62 7 5 40 -59 34 -139 56 -228 62 -72 5 -77
4 -129 -28z"/>
<path d="M2564 2535 c-65 -14 -144 -49 -144 -64 0 -6 62 -7 148 -4 173 7 194
2 272 -62 42 -35 56 -42 62 -31 19 33 -45 126 -106 155 -50 25 -137 27 -232 6z"/>
<path d="M1615 2315 c-86 -35 -146 -106 -145 -173 1 -26 1 -26 18 8 33 65 55
91 96 115 65 37 119 48 181 35 99 -21 162 -88 200 -215 l14 -50 -3 51 c-3 60
-36 129 -85 180 -74 76 -168 93 -276 49z"/>
<path d="M2392 2324 c-30 -20 -49 -61 -72 -147 -26 -98 -25 -128 5 -157 24
-23 25 -23 25 -3 0 59 73 159 142 194 138 71 305 -10 342 -165 10 -42 30 -18
22 26 -18 99 -113 177 -238 198 -102 18 -164 -12 -230 -108 l-32 -47 -8 38
c-9 45 5 84 51 141 17 21 31 40 31 42 0 8 -17 3 -38 -12z"/>
<path d="M1670 2252 c-47 -23 -80 -75 -80 -126 0 -23 4 -48 10 -56 5 -8 44
-22 87 -31 67 -15 82 -15 105 -3 37 19 41 18 35 -8 -5 -19 0 -17 24 12 28 32
30 39 26 93 -4 43 -12 66 -29 84 -51 54 -115 67 -178 35z m39 -46 c14 -17 -1
-56 -22 -56 -31 0 -51 53 -24 63 22 9 34 7 46 -7z"/>
<path d="M2498 2170 c-49 -41 -67 -115 -41 -169 l18 -36 90 3 c50 2 96 8 103
14 8 7 12 7 12 -1 0 -19 29 -12 41 10 6 12 12 43 13 69 1 37 -5 54 -27 84 -34
44 -61 56 -125 56 -38 0 -55 -6 -84 -30z m66 -35 c9 -24 -4 -45 -29 -45 -29 0
-38 13 -30 40 8 24 50 27 59 5z"/>
<path d="M1947 1754 c-4 -4 -7 -27 -7 -51 0 -57 36 -95 110 -117 170 -50 322
26 276 139 l-13 30 -7 -36 c-11 -60 -35 -74 -135 -77 -62 -1 -100 3 -136 15
-44 16 -52 23 -65 61 -9 23 -19 39 -23 36z"/>
<path d="M1664 1565 c-9 -23 3 -45 24 -45 13 0 27 -19 48 -62 47 -100 155
-196 272 -241 53 -21 90 -22 47 -2 l-30 15 35 -7 c19 -4 53 -6 74 -5 47 2 41
-8 -11 -19 -29 -6 -19 -7 39 -5 63 2 89 9 153 39 99 48 141 81 190 156 22 33
47 61 55 61 19 0 40 19 40 37 0 7 -9 17 -20 23 -16 8 -30 5 -67 -15 -45 -23
-54 -25 -141 -19 -60 5 -123 2 -179 -6 -82 -13 -89 -13 -147 8 -47 17 -183 38
-267 42 -3 0 -23 14 -44 30 -42 33 -63 38 -71 15z m334 -115 c37 -5 120 -14
185 -18 65 -5 123 -14 129 -20 18 -18 -210 -15 -318 3 -106 18 -117 22 -109
35 8 13 29 13 113 0z"/>
<path d="M1875 1232 c30 -33 136 -92 164 -92 9 0 -8 11 -38 25 -30 14 -77 42
-105 62 l-51 37 30 -32z"/>
<path d="M2385 1225 c-56 -38 -165 -85 -195 -85 -11 0 -20 -4 -20 -9 0 -11 48
-5 100 11 42 13 128 67 154 97 25 28 21 26 -39 -14z"/>
</g>
</svg>
